<?xml version="1.0" encoding="UTF-8" standalone="no"?>
<svg
   xmlns:dc="http://purl.org/dc/elements/1.1/"
   xmlns:cc="http://creativecommons.org/ns#"
   xmlns:rdf="http://www.w3.org/1999/02/22-rdf-syntax-ns#"
   xmlns:svg="http://www.w3.org/2000/svg"
   xmlns="http://www.w3.org/2000/svg"
   xmlns:sodipodi="http://sodipodi.sourceforge.net/DTD/sodipodi-0.dtd"
   xmlns:inkscape="http://www.inkscape.org/namespaces/inkscape"
   width="800"
   height="800"
   viewBox="0 0 211.66666 211.66667"
   version="1.1"
   id="svg8"
   inkscape:version="1.0.1 (0767f8302a, 2020-10-17)"
   sodipodi:docname="aquarius_blue.svg">
  <defs
     id="defs2" />
  <sodipodi:namedview
     id="base"
     pagecolor="#ffffff"
     bordercolor="#666666"
     borderopacity="1.0"
     inkscape:pageopacity="0.0"
     inkscape:pageshadow="2"
     inkscape:zoom="0.98994949"
     inkscape:cx="459.01784"
     inkscape:cy="362.81308"
     inkscape:document-units="mm"
     inkscape:current-layer="layer1"
     inkscape:document-rotation="0"
     showgrid="true"
     units="px"
     inkscape:window-width="1848"
     inkscape:window-height="1016"
     inkscape:window-x="72"
     inkscape:window-y="27"
     inkscape:window-maximized="1">
    <inkscape:grid
       type="xygrid"
       id="grid926" />
  </sodipodi:namedview>
  <metadata
     id="metadata5">
    <rdf:RDF>
      <cc:Work
         rdf:about="">
        <dc:format>image/svg+xml</dc:format>
        <dc:type
           rdf:resource="http://purl.org/dc/dcmitype/StillImage" />
        <dc:title></dc:title>
      </cc:Work>
    </rdf:RDF>
  </metadata>
  <g
     inkscape:label="Layer 1"
     inkscape:groupmode="layer"
     id="layer1">
    <path
       style="fill:none;stroke:#2f343e;stroke-width:2;stroke-linecap:round;stroke-linejoin:round;stroke-miterlimit:4;stroke-dasharray:none;stroke-opacity:1"
       d="m 21.166666,154.78125 h 66.145833 l 10.583333,-23.8125 -2.645833,-19.84375 -7.9375,-3.96875 -17.197917,-5.29167 -25.135416,6.61459 -11.377083,16.13958 -7.672916,1.05833 -8.466667,12.96459 3.704166,16.13958"
       id="path1447"
       sodipodi:nodetypes="ccccccccccc" />
    <path
       style="fill:none;stroke:#2f343e;stroke-width:2;stroke-linecap:round;stroke-linejoin:round;stroke-miterlimit:4;stroke-dasharray:none;stroke-opacity:1"
       d="m 26.19375,125.67708 21.431249,-2.64583 17.197917,13.22916"
       id="path1449"
       sodipodi:nodetypes="ccc" />
    <path
       style="fill:none;stroke:#2f343e;stroke-width:2;stroke-linecap:round;stroke-linejoin:round;stroke-miterlimit:4;stroke-dasharray:none;stroke-opacity:1"
       d="m 25.135416,154.78125 -2.645833,-14.55209 6.614584,-9.78958 18.520833,-1.5875 11.906249,10.05417 1.322917,3.96875"
       id="path1451"
       sodipodi:nodetypes="cccccc" />
    <path
       style="fill:none;stroke:#2f343e;stroke-width:2;stroke-linecap:round;stroke-linejoin:round;stroke-opacity:1;stroke-miterlimit:4;stroke-dasharray:none"
       d="M 29.104166,154.78125 26.458333,141.55208 31.75,134.9375 l 14.552083,-1.32292 9.260416,7.9375 1.322917,3.96875"
       id="path1453" />
    <path
       style="fill:none;stroke:#2f343e;stroke-width:2;stroke-linecap:round;stroke-linejoin:round;stroke-opacity:1;stroke-miterlimit:4;stroke-dasharray:none"
       d="m 33.072916,154.78125 -2.645833,-11.90625 3.96875,-3.96875 h 10.583333 l 9.260417,7.9375"
       id="path1455" />
    <path
       style="fill:none;stroke:#2f343e;stroke-width:2;stroke-linecap:round;stroke-linejoin:round;stroke-miterlimit:4;stroke-dasharray:none;stroke-opacity:1"
       d="m 35.189583,154.78125 -2.38125,-13.75833"
       id="path1459"
       sodipodi:nodetypes="cc" />
    <path
       style="fill:none;stroke:#2f343e;stroke-width:2;stroke-linecap:round;stroke-linejoin:round;stroke-miterlimit:4;stroke-dasharray:none;stroke-opacity:1"
       d="M 39.6875,154.78125 37.570833,139.17083"
       id="path1461"
       sodipodi:nodetypes="cc" />
    <path
       style="fill:none;stroke:#2f343e;stroke-width:2;stroke-linecap:round;stroke-linejoin:round;stroke-miterlimit:4;stroke-dasharray:none;stroke-opacity:1"
       d="M 44.45,152.4 42.333333,138.90625"
       id="path1463"
       sodipodi:nodetypes="cc" />
    <path
       style="fill:none;stroke:#2f343e;stroke-width:2;stroke-linecap:round;stroke-linejoin:round;stroke-miterlimit:4;stroke-dasharray:none;stroke-opacity:1"
       d="m 48.154167,150.01875 -1.5875,-9.525"
       id="path1465"
       sodipodi:nodetypes="cc" />
    <path
       style="fill:none;stroke:#2f343e;stroke-width:2;stroke-linecap:round;stroke-linejoin:round;stroke-miterlimit:4;stroke-dasharray:none;stroke-opacity:1"
       d="m 51.593749,148.16666 -0.529166,-3.96874"
       id="path1467"
       sodipodi:nodetypes="cc" />
    <path
       style="fill:none;stroke:#2f343e;stroke-width:2;stroke-linecap:round;stroke-linejoin:round;stroke-opacity:1;stroke-miterlimit:4;stroke-dasharray:none"
       d="M 41.010416,154.78125 62.177083,142.875 68.791666,128.32292"
       id="path1469" />
    <path
       style="fill:none;stroke:#2f343e;stroke-width:2;stroke-linecap:round;stroke-linejoin:round;stroke-miterlimit:4;stroke-dasharray:none;stroke-opacity:1"
       d="M 50.270833,154.78125 65.616667,146.05 74.083332,128.32292"
       id="path1471"
       sodipodi:nodetypes="ccc" />
    <path
       style="fill:none;stroke:#2f343e;stroke-width:2;stroke-linecap:round;stroke-linejoin:round;stroke-opacity:1;stroke-miterlimit:4;stroke-dasharray:none"
       d="m 59.531249,154.78125 9.260417,-5.29167 10.583333,-19.84375"
       id="path1473" />
    <path
       style="fill:none;stroke:#2f343e;stroke-width:2;stroke-linecap:round;stroke-linejoin:round;stroke-opacity:1;stroke-miterlimit:4;stroke-dasharray:none"
       d="m 67.468749,154.78125 5.291667,-2.64584 10.583333,-21.16666"
       id="path1475" />
    <path
       style="fill:none;stroke:#2f343e;stroke-width:2;stroke-linecap:round;stroke-linejoin:round;stroke-miterlimit:4;stroke-dasharray:none;stroke-opacity:1"
       d="M 76.729166,154.78125 87.577083,132.02708"
       id="path1479"
       sodipodi:nodetypes="cc" />
    <path
       style="fill:none;stroke:#2f343e;stroke-width:2;stroke-linecap:round;stroke-linejoin:round;stroke-miterlimit:4;stroke-dasharray:none;stroke-opacity:1"
       d="M 81.75625,154.51667 91.810417,133.08542"
       id="path1481"
       sodipodi:nodetypes="cc" />
    <path
       style="fill:none;stroke:#2f343e;stroke-width:2;stroke-linecap:round;stroke-linejoin:round;stroke-miterlimit:4;stroke-dasharray:none;stroke-opacity:1"
       d="M 96.04375,134.67292 92.604166,132.29166 72.760416,127 l -10.583333,2.64583 -2.116666,2.64584"
       id="path1483"
       sodipodi:nodetypes="ccccc" />
    <path
       style="fill:none;stroke:#2f343e;stroke-width:2;stroke-linecap:round;stroke-linejoin:round;stroke-miterlimit:4;stroke-dasharray:none;stroke-opacity:1"
       d="m 56.091667,128.32292 3.439582,-3.96875 11.90625,-2.64584 22.489584,5.02709 3.968749,4.23333"
       id="path1485"
       sodipodi:nodetypes="ccccc" />
    <path
       style="fill:none;stroke:#2f343e;stroke-width:2;stroke-linecap:round;stroke-linejoin:round;stroke-miterlimit:4;stroke-dasharray:none;stroke-opacity:1"
       d="m 52.122917,125.94167 4.762499,-5.55625 14.552084,-3.70417 24.077083,4.7625 1.5875,3.43958"
       id="path1487"
       sodipodi:nodetypes="ccccc" />
    <path
       style="fill:none;stroke:#2f343e;stroke-width:2;stroke-linecap:round;stroke-linejoin:round;stroke-miterlimit:4;stroke-dasharray:none;stroke-opacity:1"
       d="m 47.624999,123.03125 5.820834,-7.14375 17.991666,-4.7625 23.8125,5.29167"
       id="path1489"
       sodipodi:nodetypes="cccc" />
    <path
       style="fill:none;stroke:#2f343e;stroke-width:2;stroke-linecap:round;stroke-linejoin:round;stroke-miterlimit:4;stroke-dasharray:none;stroke-opacity:1"
       d="M 40.745833,123.29583 48.947916,111.125 70.114582,105.83333 95.249999,111.125"
       id="path1491"
       sodipodi:nodetypes="cccc" />
    <path
       style="fill:none;stroke:#2f343e;stroke-width:2;stroke-linecap:round;stroke-linejoin:round;stroke-miterlimit:4;stroke-dasharray:none;stroke-opacity:1"
       d="m 92.604166,142.875 11.906254,11.90625 h 46.30208 l 10.58333,-23.8125 7.9375,-21.16667 -3.96875,-2.64583 3.96875,-1.32292 6.61458,-11.906248 3.96875,1.322917 v 6.614581 l -6.61458,3.96875 2.64583,1.32292 -3.96875,9.26042 -5.02708,0"
       id="path1493"
       sodipodi:nodetypes="cccccccccccccc" />
    <path
       style="fill:none;stroke:#2f343e;stroke-width:2;stroke-linecap:round;stroke-linejoin:round;stroke-miterlimit:4;stroke-dasharray:none;stroke-opacity:1"
       d="m 162.18958,129.64583 3.175,5.29167 h 3.96875 l 15.875,-31.75 -1.32292,-13.229168 -10.58333,-3.96875 -6.61458,13.229167 2.64583,6.614581"
       id="path1495"
       sodipodi:nodetypes="cccccccc" />
    <path
       style="fill:none;stroke:#2f343e;stroke-width:2;stroke-linecap:round;stroke-linejoin:round;stroke-opacity:1;stroke-miterlimit:4;stroke-dasharray:none"
       d="m 87.312499,107.15625 7.9375,-7.937501 -10.583333,-9.260417 21.166664,-15.875 -6.614581,-10.583333 21.166671,-15.875 41.01041,-2.645833 17.19792,18.520833"
       id="path1497" />
    <path
       style="fill:none;stroke:#2f343e;stroke-width:2;stroke-linecap:round;stroke-linejoin:round;stroke-opacity:1;stroke-miterlimit:4;stroke-dasharray:none"
       d="m 185.20833,83.343749 9.26042,-9.260417 -11.90625,-14.552083 -9.26042,9.260417 11.90625,14.552083"
       id="path1499" />
    <path
       style="fill:none;stroke:#2f343e;stroke-width:2;stroke-linecap:round;stroke-linejoin:round;stroke-miterlimit:4;stroke-dasharray:none;stroke-opacity:1"
       d="m 182.5625,80.697916 -17.19792,6.614583 2.64583,-7.9375 8.46667,-6.085416"
       id="path1501"
       sodipodi:nodetypes="cccc" />
    <path
       style="fill:none;stroke:#2f343e;stroke-width:2;stroke-linecap:round;stroke-linejoin:round;stroke-opacity:1;stroke-miterlimit:4;stroke-dasharray:none"
       d="m 168.01041,79.374999 -10.58333,-11.90625 10.58333,-6.614583 7.9375,5.291666"
       id="path1503" />
    <path
       style="fill:none;stroke:#2f343e;stroke-width:2;stroke-linecap:round;stroke-linejoin:round;stroke-opacity:1;stroke-miterlimit:4;stroke-dasharray:none"
       d="m 162.71875,74.083332 -9.26042,3.96875 -7.9375,-9.260416 10.58333,-7.9375 5.29167,3.96875"
       id="path1505" />
    <path
       style="fill:none;stroke:#2f343e;stroke-width:2;stroke-linecap:round;stroke-linejoin:round;stroke-opacity:1;stroke-miterlimit:4;stroke-dasharray:none"
       d="m 166.6875,78.052082 -3.96875,7.9375 -14.55209,1.322917 5.29167,-9.260417"
       id="path1507" />
    <path
       style="fill:none;stroke:#2f343e;stroke-width:2;stroke-linecap:round;stroke-linejoin:round;stroke-opacity:1;stroke-miterlimit:4;stroke-dasharray:none"
       d="m 150.8125,75.406249 -6.61459,10.583333 -10.58333,-5.291666 7.9375,-6.614584 6.61458,-1.322916"
       id="path1509" />
    <path
       style="fill:none;stroke:#2f343e;stroke-width:2;stroke-linecap:round;stroke-linejoin:round;stroke-opacity:1;stroke-miterlimit:4;stroke-dasharray:none"
       d="m 141.55208,74.083332 -7.9375,-13.229166 10.58333,-3.96875 7.9375,6.614583"
       id="path1511" />
    <path
       style="fill:none;stroke:#2f343e;stroke-width:2;stroke-linecap:round;stroke-linejoin:round;stroke-opacity:1;stroke-miterlimit:4;stroke-dasharray:none"
       d="m 120.38542,47.624999 -9.26042,21.166667 2.64583,5.291666 -5.29166,1.322917 10.58333,9.260417 -13.22917,-2.645834 21.16667,3.96875 1.32292,6.614584 h 2.64583 l 1.32291,2.645833 -1.32291,2.645833 -5.29167,-1.322917 -3.96875,-5.291666 -6.61458,-2.645833 -9.26042,5.291666 -1.32291,10.583338 -1.32292,2.64583 -2.64583,-1.32292 -1.322921,-2.64583 2.645831,-10.583334 5.29167,-5.291667 -1.32292,-5.291667"
       id="path1513" />
    <path
       style="fill:none;stroke:#2f343e;stroke-width:2;stroke-linecap:round;stroke-linejoin:round;stroke-opacity:1;stroke-miterlimit:4;stroke-dasharray:none"
       d="m 92.604166,101.86458 6.614583,1.32292"
       id="path1515" />
    <path
       style="fill:none;stroke:#2f343e;stroke-width:2;stroke-linecap:round;stroke-linejoin:round;stroke-opacity:1;stroke-miterlimit:4;stroke-dasharray:none"
       d="m 104.51042,104.51042 h 1.32291 l 3.96875,-10.583338 10.58334,-2.645833"
       id="path1517" />
    <path
       style="fill:none;stroke:#2f343e;stroke-width:2;stroke-linecap:round;stroke-linejoin:round;stroke-opacity:1;stroke-miterlimit:4;stroke-dasharray:none"
       d="m 105.83333,104.51042 5.29167,9.26041 1.32292,14.55209 -3.96875,10.58333 -14.552088,5.29166"
       id="path1519" />
    <path
       style="fill:none;stroke:#2f343e;stroke-width:2;stroke-linecap:round;stroke-linejoin:round;stroke-opacity:1;stroke-miterlimit:4;stroke-dasharray:none"
       d="m 108.47917,138.90625 2.64583,6.61458 6.61458,1.32292 L 124.35417,127 123.03125,104.51042 111.125,93.927082"
       id="path1521" />
    <path
       style="fill:none;stroke:#2f343e;stroke-width:2;stroke-linecap:round;stroke-linejoin:round;stroke-opacity:1;stroke-miterlimit:4;stroke-dasharray:none"
       d="m 117.73958,146.84375 23.8125,-5.29167 10.58333,-9.26042 2.64584,-5.29166 1.32291,-13.22917 -7.9375,-14.552081 -15.875,-3.96875"
       id="path1523" />
    <path
       style="fill:none;stroke:#2f343e;stroke-width:2;stroke-linecap:round;stroke-linejoin:round;stroke-opacity:1;stroke-miterlimit:4;stroke-dasharray:none"
       d="m 153.45833,149.48958 19.84375,-1.32292 -1.32292,-7.9375 21.16667,-42.333328 -5.29167,-17.197916"
       id="path1525" />
    <path
       style="fill:none;stroke:#2f343e;stroke-width:2;stroke-linecap:round;stroke-linejoin:round;stroke-opacity:1;stroke-miterlimit:4;stroke-dasharray:none"
       d="m 181.23958,60.854166 -6.61458,-9.260417 -3.96875,2.645834"
       id="path1527" />
    <path
       style="fill:none;stroke:#2f343e;stroke-width:2;stroke-linecap:round;stroke-linejoin:round;stroke-opacity:1;stroke-miterlimit:4;stroke-dasharray:none"
       d="m 108.21458,82.549999 1.5875,-5.820833"
       id="path1529" />
  </g>
</svg>
