<?xml version="1.0" encoding="UTF-8" standalone="no"?>
<svg
   xmlns:dc="http://purl.org/dc/elements/1.1/"
   xmlns:cc="http://creativecommons.org/ns#"
   xmlns:rdf="http://www.w3.org/1999/02/22-rdf-syntax-ns#"
   xmlns:svg="http://www.w3.org/2000/svg"
   xmlns="http://www.w3.org/2000/svg"
   xmlns:sodipodi="http://sodipodi.sourceforge.net/DTD/sodipodi-0.dtd"
   xmlns:inkscape="http://www.inkscape.org/namespaces/inkscape"
   width="800"
   height="800"
   viewBox="0 0 211.66666 211.66666"
   version="1.1"
   id="svg992"
   inkscape:version="1.0.1 (0767f8302a, 2020-10-17)"
   sodipodi:docname="aries_blue.svg">
  <defs
     id="defs986" />
  <sodipodi:namedview
     id="base"
     pagecolor="#ffffff"
     bordercolor="#666666"
     borderopacity="1.0"
     inkscape:pageopacity="0.0"
     inkscape:pageshadow="2"
     inkscape:zoom="0.98994949"
     inkscape:cx="400"
     inkscape:cy="377.23939"
     inkscape:document-units="mm"
     inkscape:current-layer="layer1"
     inkscape:document-rotation="0"
     showgrid="true"
     units="px"
     inkscape:window-width="1848"
     inkscape:window-height="1016"
     inkscape:window-x="72"
     inkscape:window-y="27"
     inkscape:window-maximized="1">
    <inkscape:grid
       type="xygrid"
       id="grid994" />
  </sodipodi:namedview>
  <metadata
     id="metadata989">
    <rdf:RDF>
      <cc:Work
         rdf:about="">
        <dc:format>image/svg+xml</dc:format>
        <dc:type
           rdf:resource="http://purl.org/dc/dcmitype/StillImage" />
        <dc:title></dc:title>
      </cc:Work>
    </rdf:RDF>
  </metadata>
  <g
     inkscape:label="Layer 1"
     inkscape:groupmode="layer"
     id="layer1">
    <path
       style="display:inline;fill:none;stroke:#2f343e;stroke-width:2;stroke-linecap:round;stroke-linejoin:round;stroke-miterlimit:4;stroke-dasharray:none;stroke-opacity:1"
       d="m 13.229172,133.61457 -5.2916677,-10.58333 5.2916677,-1.32292 v 11.90625 L 7.9375043,123.03124 13.229172,111.12499 58.208333,123.03124 47.625005,105.83333 13.229172,111.12499 7.9375043,123.03124 33.072924,116.41665 58.208333,123.03124 59.531255,60.854162 37.041674,44.979161 64.822924,50.270827 59.531255,60.854162 37.041674,44.979161 47.625005,105.83333 58.208333,123.03124 37.041674,44.979161 59.531255,33.072911 78.052086,78.052078 59.531255,60.854162 78.052086,78.052078 76.729174,33.072911 H 59.531255 76.729174 l 11.90625,26.458334 -10.583338,18.520833 -6.614581,15.874998 7.9375,-5.291662 -1.322919,-10.583336 27.781244,5.291667 v 17.197925 l -26.458325,-11.906256 -2.645831,10.583331 29.104156,1.322925 27.78125,-1.322925 -1.32292,-10.583331 -26.45833,11.906256 17.19792,5.29166 -5.29167,39.68748 -5.29166,9.26043 h -11.90624 l -6.614594,-9.26043 -9.260412,-35.71874 -7.9375,-10.583325 7.9375,10.583325 9.260412,35.71874 -5.291662,-39.68748 -5.291669,-6.614585 5.291669,6.614585 17.197906,-5.29166 -6.614572,5.29166 v 27.78124 l 13.229162,21.16667 h -11.90624 l 11.90624,-21.16667 -6.61459,2.64584 -6.614572,-2.64584 6.614572,2.64584 6.61459,-2.64584 v -27.78124 l -6.61459,-5.29166 26.45833,-11.906256 9.26042,6.614581 -6.61458,-18.520833 -2.64584,11.906252 2.64584,-11.906252 -29.10417,6.614583 29.10417,-6.614583 -11.90625,-17.197917 H 88.635424 123.03125 L 134.9375,33.072911 v 43.656251 l 17.19791,-43.656251 22.48959,10.583333 -27.78125,3.96875 5.29166,11.906251 L 174.625,43.656244 152.13541,121.70832 164.04166,104.51041 174.625,43.656244 152.13541,33.072911 H 134.9375 v 43.656251 l 17.19791,-17.197917 v 62.177075 l 11.90625,-17.19791 34.39584,5.29166 -46.30209,11.90625 46.30209,-11.90625 6.61458,13.22917 -30.42708,-6.61459 25.13541,5.29167 v 11.90625 l 5.29167,-10.58333 -30.42708,-6.61459 -22.48959,5.29167 V 59.531245 l -17.19791,17.197917 -2.64584,11.906252 1.32292,10.583331 -6.61458,9.260415 -9.26042,37.04165 5.29167,-39.68748 5.29167,-6.614585"
       id="path107-3" />
    <path
       style="fill:none;stroke:#2f343e;stroke-width:2;stroke-linecap:round;stroke-linejoin:miter;stroke-miterlimit:4;stroke-dasharray:none;stroke-opacity:1"
       d="M 83.343752,99.218745 79.375002,88.635412"
       id="path964" />
    <path
       style="fill:none;stroke:#2f343e;stroke-width:2;stroke-linecap:round;stroke-linejoin:miter;stroke-miterlimit:4;stroke-dasharray:none;stroke-opacity:1"
       d="m 128.32292,99.218745 3.96875,-10.583333"
       id="path966" />
  </g>
</svg>
