<?xml version="1.0" encoding="UTF-8" standalone="no"?>
<svg
   xmlns:dc="http://purl.org/dc/elements/1.1/"
   xmlns:cc="http://creativecommons.org/ns#"
   xmlns:rdf="http://www.w3.org/1999/02/22-rdf-syntax-ns#"
   xmlns:svg="http://www.w3.org/2000/svg"
   xmlns="http://www.w3.org/2000/svg"
   xmlns:sodipodi="http://sodipodi.sourceforge.net/DTD/sodipodi-0.dtd"
   xmlns:inkscape="http://www.inkscape.org/namespaces/inkscape"
   width="800"
   height="800"
   viewBox="0 0 211.66666 211.66667"
   version="1.1"
   id="svg8"
   inkscape:version="1.0.1 (0767f8302a, 2020-10-17)"
   sodipodi:docname="pisces_beige.svg">
  <defs
     id="defs2" />
  <sodipodi:namedview
     id="base"
     pagecolor="#ffffff"
     bordercolor="#666666"
     borderopacity="1.0"
     inkscape:pageopacity="0.0"
     inkscape:pageshadow="2"
     inkscape:zoom="0.98994949"
     inkscape:cx="453.95032"
     inkscape:cy="420.90847"
     inkscape:document-units="mm"
     inkscape:current-layer="layer1"
     inkscape:document-rotation="0"
     showgrid="true"
     units="px"
     inkscape:window-width="1848"
     inkscape:window-height="1016"
     inkscape:window-x="72"
     inkscape:window-y="27"
     inkscape:window-maximized="1">
    <inkscape:grid
       type="xygrid"
       id="grid926" />
  </sodipodi:namedview>
  <metadata
     id="metadata5">
    <rdf:RDF>
      <cc:Work
         rdf:about="">
        <dc:format>image/svg+xml</dc:format>
        <dc:type
           rdf:resource="http://purl.org/dc/dcmitype/StillImage" />
        <dc:title></dc:title>
      </cc:Work>
    </rdf:RDF>
  </metadata>
  <g
     inkscape:label="Layer 1"
     inkscape:groupmode="layer"
     id="layer1">
    <path
       style="fill:none;stroke:#b2a796;stroke-width:2;stroke-linecap:round;stroke-linejoin:round;stroke-miterlimit:4;stroke-dasharray:none;stroke-opacity:1"
       d="m 95.25,163.5125 -21.166668,4.49791 11.90625,-6.61458 H 41.010416 L 52.916666,154.78125 35.71875,136.26041 46.302083,142.875 33.072916,117.73958 42.333333,127 l -9.260417,-26.45833 6.614584,6.61458 -3.96875,-34.395834 6.614583,5.291666 -1.322917,-25.135416 3.968751,3.968751 17.197916,-2.645834 7.9375,1.322917 v 9.260417"
       id="path1633"
       sodipodi:nodetypes="cccccccccccccccccc" />
    <path
       style="fill:none;stroke:#b2a796;stroke-width:2;stroke-linecap:round;stroke-linejoin:round;stroke-opacity:1;stroke-miterlimit:4;stroke-dasharray:none"
       d="M 85.989582,161.39583 64.822916,157.42708 46.302083,136.26041 42.333333,117.73958 V 91.281249 l 5.291666,-31.75 14.552084,-5.291666"
       id="path1635" />
    <path
       style="fill:none;stroke:#b2a796;stroke-width:2;stroke-linecap:round;stroke-linejoin:round;stroke-opacity:1;stroke-miterlimit:4;stroke-dasharray:none"
       d="m 70.114582,64.822916 -3.96875,1.322916 -7.937499,13.229167 -5.291667,25.135421 5.291667,25.13541 6.614583,13.22917 13.229166,6.61458 13.229167,-1.32292 31.750001,10.58334 -3.96875,2.64583 -14.55208,3.96875 -18.520838,-3.96875"
       id="path1637" />
    <path
       style="fill:none;stroke:#b2a796;stroke-width:2;stroke-linecap:round;stroke-linejoin:round;stroke-opacity:1;stroke-miterlimit:4;stroke-dasharray:none"
       d="m 46.302083,72.760416 9.260416,-3.96875 6.614584,3.96875"
       id="path1639" />
    <path
       style="fill:none;stroke:#b2a796;stroke-width:2;stroke-linecap:round;stroke-linejoin:round;stroke-opacity:1;stroke-miterlimit:4;stroke-dasharray:none"
       d="m 43.656249,84.666666 6.614584,-2.645834 6.614583,3.96875"
       id="path1641" />
    <path
       style="fill:none;stroke:#b2a796;stroke-width:2;stroke-linecap:round;stroke-linejoin:round;stroke-opacity:1;stroke-miterlimit:4;stroke-dasharray:none"
       d="m 42.333333,97.895832 5.291666,-6.614583 6.614584,5.291666"
       id="path1643" />
    <path
       style="fill:none;stroke:#b2a796;stroke-width:2;stroke-linecap:round;stroke-linejoin:round;stroke-opacity:1;stroke-miterlimit:4;stroke-dasharray:none"
       d="m 42.333333,109.80208 5.291666,-5.29166 6.614584,6.61458"
       id="path1645" />
    <path
       style="fill:none;stroke:#b2a796;stroke-width:2;stroke-linecap:round;stroke-linejoin:round;stroke-miterlimit:4;stroke-dasharray:none;stroke-opacity:1"
       d="m 44.979167,124.35417 3.968749,-3.96875 7.9375,2.64583"
       id="path1647"
       sodipodi:nodetypes="ccc" />
    <path
       style="fill:none;stroke:#b2a796;stroke-width:2;stroke-linecap:round;stroke-linejoin:round;stroke-opacity:1;stroke-miterlimit:4;stroke-dasharray:none"
       d="m 48.947916,138.90625 3.96875,-6.61459 7.9375,2.64584"
       id="path1649" />
    <path
       style="fill:none;stroke:#b2a796;stroke-width:2;stroke-linecap:round;stroke-linejoin:round;stroke-opacity:1;stroke-miterlimit:4;stroke-dasharray:none"
       d="m 58.208333,149.48958 v -7.9375 l 6.614583,1.32292"
       id="path1651" />
    <path
       style="fill:none;stroke:#b2a796;stroke-width:2;stroke-linecap:round;stroke-linejoin:round;stroke-opacity:1;stroke-miterlimit:4;stroke-dasharray:none"
       d="m 79.374999,160.07291 -5.291667,-5.29166 3.96875,-5.29167"
       id="path1653" />
    <path
       style="fill:none;stroke:#b2a796;stroke-width:2;stroke-linecap:round;stroke-linejoin:round;stroke-miterlimit:4;stroke-dasharray:none;stroke-opacity:1"
       d="m 92.075,162.45417 -7.408334,-7.67292 6.614583,-6.61459"
       id="path1657"
       sodipodi:nodetypes="ccc" />
    <path
       style="fill:none;stroke:#b2a796;stroke-width:2;stroke-linecap:round;stroke-linejoin:round;stroke-miterlimit:4;stroke-dasharray:none;stroke-opacity:1"
       d="m 101.86458,158.75 9.26042,-1.32292 -5.29167,3.96875 z"
       id="path1659"
       sodipodi:nodetypes="cccc" />
    <path
       style="fill:none;stroke:#b2a796;stroke-width:2;stroke-linecap:round;stroke-linejoin:round;stroke-miterlimit:4;stroke-dasharray:none;stroke-opacity:1"
       d="m 70.114583,64.822917 9.260416,-3.968751 33.072921,-1.322917 -31.750004,-13.229166 -18.520833,7.9375"
       id="path1661"
       sodipodi:nodetypes="ccccc" />
    <path
       style="fill:none;stroke:#b2a796;stroke-width:2;stroke-linecap:round;stroke-linejoin:round;stroke-miterlimit:4;stroke-dasharray:none;stroke-opacity:1"
       d="m 89.958333,59.53125 1.322916,-5.291667 -5.291666,-5.291666"
       id="path1663"
       sodipodi:nodetypes="ccc" />
    <path
       style="fill:none;stroke:#b2a796;stroke-width:2;stroke-linecap:round;stroke-linejoin:round;stroke-opacity:1;stroke-miterlimit:4;stroke-dasharray:none"
       d="m 112.44792,59.531249 -19.843754,9.260417 -18.520834,17.197916 -3.96875,18.520838 5.291667,18.52083 26.458331,11.90625 17.19792,1.32291 5.29167,2.64584 -33.072921,9.26041"
       id="path1665" />
    <path
       style="fill:none;stroke:#b2a796;stroke-width:2;stroke-linecap:round;stroke-linejoin:round;stroke-opacity:1;stroke-miterlimit:4;stroke-dasharray:none"
       d="m 91.281249,136.26041 -15.875,-7.93749 -6.614583,-10.58334 -3.96875,-31.749998 -6.614583,25.135418 10.583333,18.52083 22.489583,6.61458"
       id="path1667" />
    <path
       style="fill:none;stroke:#b2a796;stroke-width:2;stroke-linecap:round;stroke-linejoin:round;stroke-miterlimit:4;stroke-dasharray:none;stroke-opacity:1"
       d="m 87.3125,128.32292 -6.614584,-10.58334 0,-19.843748 5.291666,-13.229166 v 25.135414 l 13.229168,23.8125"
       id="path1669"
       sodipodi:nodetypes="cccccc" />
    <path
       style="fill:none;stroke:#b2a796;stroke-width:2;stroke-linecap:round;stroke-linejoin:round;stroke-miterlimit:4;stroke-dasharray:none;stroke-opacity:1"
       d="m 91.281249,50.270833 5.291666,-3.96875 17.197915,-2.645833 31.75,7.937499 11.90625,7.9375 6.61458,13.229167 5.29167,18.520833 V 116.41667 L 158.75,149.48958 136.26041,161.39583 123.03125,158.75"
       id="path1671"
       sodipodi:nodetypes="ccccccccccc" />
    <path
       style="fill:none;stroke:#b2a796;stroke-width:2;stroke-linecap:round;stroke-linejoin:round;stroke-opacity:1;stroke-miterlimit:4;stroke-dasharray:none"
       d="m 91.281249,50.270833 33.072921,9.260416 -31.750004,9.260417 3.968751,5.291667 17.197913,-1.322916 21.16667,9.260416 6.61458,22.489587 -5.29166,23.8125 -11.90625,10.58333"
       id="path1673" />
    <path
       style="fill:none;stroke:#b2a796;stroke-width:2;stroke-linecap:round;stroke-linejoin:round;stroke-opacity:1;stroke-miterlimit:4;stroke-dasharray:none"
       d="m 119.0625,75.406249 10.58333,23.8125 V 124.35417 L 136.26041,111.125 134.9375,91.281249 125.67708,78.052082"
       id="path1675" />
    <path
       style="fill:none;stroke:#b2a796;stroke-width:2;stroke-linecap:round;stroke-linejoin:round;stroke-opacity:1;stroke-miterlimit:4;stroke-dasharray:none"
       d="m 125.67708,74.083332 13.22917,7.9375 5.29166,9.260417 2.64584,31.750001 5.29166,-23.812501 -6.61458,-19.84375 z"
       id="path1677" />
    <path
       style="fill:none;stroke:#b2a796;stroke-width:2;stroke-linecap:round;stroke-linejoin:round;stroke-opacity:1;stroke-miterlimit:4;stroke-dasharray:none"
       d="m 108.47917,51.593749 10.58333,-1.322916 -5.29167,-2.645834 z"
       id="path1679" />
    <path
       style="fill:none;stroke:#b2a796;stroke-width:2;stroke-linecap:round;stroke-linejoin:round;stroke-miterlimit:4;stroke-dasharray:none;stroke-opacity:1"
       d="m 125.67708,46.302083 5.29167,7.9375 -6.61458,5.291666 13.22916,-3.968749 -2.64583,-6.614583"
       id="path1681"
       sodipodi:nodetypes="ccccc" />
    <path
       style="fill:none;stroke:#b2a796;stroke-width:2;stroke-linecap:round;stroke-linejoin:round;stroke-opacity:1;stroke-miterlimit:4;stroke-dasharray:none"
       d="m 124.35417,59.531249 h 10.58333 l 10.58333,6.614583 6.61458,11.90625 5.29167,25.135418 -5.29167,26.45833 -6.61458,10.58333 -15.875,9.26042 -27.78125,-1.32292"
       id="path1683" />
    <path
       style="fill:none;stroke:#b2a796;stroke-width:2;stroke-linecap:round;stroke-linejoin:round;stroke-opacity:1;stroke-miterlimit:4;stroke-dasharray:none"
       d="m 124.35417,138.90625 -22.48959,9.26041 21.16667,10.58334"
       id="path1685" />
    <path
       style="fill:none;stroke:#b2a796;stroke-width:2;stroke-linecap:round;stroke-linejoin:round;stroke-opacity:1;stroke-miterlimit:4;stroke-dasharray:none"
       d="m 129.64583,149.48958 -5.29166,5.29167 11.90624,6.61458"
       id="path1687" />
    <path
       style="fill:none;stroke:#b2a796;stroke-width:2;stroke-linecap:round;stroke-linejoin:round;stroke-miterlimit:4;stroke-dasharray:none;stroke-opacity:1"
       d="m 141.55208,142.875 -1.32292,13.22916 8.20209,-1.32291"
       id="path1691"
       sodipodi:nodetypes="ccc" />
    <path
       style="fill:none;stroke:#b2a796;stroke-width:2;stroke-linecap:round;stroke-linejoin:round;stroke-opacity:1;stroke-miterlimit:4;stroke-dasharray:none"
       d="m 149.48958,134.9375 3.96875,7.9375 7.9375,-3.96875"
       id="path1693" />
    <path
       style="fill:none;stroke:#b2a796;stroke-width:2;stroke-linecap:round;stroke-linejoin:round;stroke-miterlimit:4;stroke-dasharray:none;stroke-opacity:1"
       d="m 153.45833,123.03125 5.29167,7.9375 7.40833,-5.55625"
       id="path1695"
       sodipodi:nodetypes="ccc" />
    <path
       style="fill:none;stroke:#b2a796;stroke-width:2;stroke-linecap:round;stroke-linejoin:round;stroke-opacity:1;stroke-miterlimit:4;stroke-dasharray:none"
       d="m 157.42708,103.1875 6.61458,2.64583 5.29167,-7.937498"
       id="path1697" />
    <path
       style="fill:none;stroke:#b2a796;stroke-width:2;stroke-linecap:round;stroke-linejoin:round;stroke-miterlimit:4;stroke-dasharray:none;stroke-opacity:1"
       d="m 154.78125,87.312499 9.26041,3.96875 3.17501,-6.349999"
       id="path1699"
       sodipodi:nodetypes="ccc" />
    <path
       style="fill:none;stroke:#b2a796;stroke-width:2;stroke-linecap:round;stroke-linejoin:round;stroke-miterlimit:4;stroke-dasharray:none;stroke-opacity:1"
       d="m 152.13541,78.052082 9.26042,5.291667 3.43959,-6.349999"
       id="path1701"
       sodipodi:nodetypes="ccc" />
    <path
       style="fill:none;stroke:#b2a796;stroke-width:2;stroke-linecap:round;stroke-linejoin:round;stroke-miterlimit:4;stroke-dasharray:none;stroke-opacity:1"
       d="m 149.48958,72.760416 9.26042,1.322916 1.5875,-7.937499"
       id="path1703"
       sodipodi:nodetypes="ccc" />
    <path
       style="fill:none;stroke:#b2a796;stroke-width:2;stroke-linecap:round;stroke-linejoin:round;stroke-miterlimit:4;stroke-dasharray:none;stroke-opacity:1"
       d="m 145.52083,66.145832 7.93751,1.058334 -1.32292,-10.583333"
       id="path1705"
       sodipodi:nodetypes="ccc" />
    <path
       style="fill:none;stroke:#b2a796;stroke-width:2;stroke-linecap:round;stroke-linejoin:round;stroke-miterlimit:4;stroke-dasharray:none;stroke-opacity:1"
       d="m 139.17083,61.9125 7.67292,-3.704167 -5.55625,-7.672916"
       id="path1707"
       sodipodi:nodetypes="ccc" />
    <path
       style="fill:none;stroke:#b2a796;stroke-width:2;stroke-linecap:round;stroke-linejoin:round;stroke-miterlimit:4;stroke-dasharray:none;stroke-opacity:1"
       d="m 125.67708,46.302083 21.16667,-5.291667 -11.90625,6.614583 h 34.39583 l -11.90625,6.614584 17.19792,18.520833 -10.58334,-5.291667 15.875,23.8125 -9.26041,-7.9375 10.58333,27.781251 -7.9375,-9.26042 2.64583,34.39583 -6.61458,-5.29166 -5.29167,23.8125 -2.64583,-2.64584 -12.96458,2.64584"
       id="path1709"
       sodipodi:nodetypes="cccccccccccccccc" />
  </g>
</svg>
