<?xml version="1.0" encoding="UTF-8" standalone="no"?>
<svg
   xmlns:dc="http://purl.org/dc/elements/1.1/"
   xmlns:cc="http://creativecommons.org/ns#"
   xmlns:rdf="http://www.w3.org/1999/02/22-rdf-syntax-ns#"
   xmlns:svg="http://www.w3.org/2000/svg"
   xmlns="http://www.w3.org/2000/svg"
   xmlns:sodipodi="http://sodipodi.sourceforge.net/DTD/sodipodi-0.dtd"
   xmlns:inkscape="http://www.inkscape.org/namespaces/inkscape"
   width="800"
   height="800"
   viewBox="0 0 211.66666 211.66667"
   version="1.1"
   id="svg8"
   sodipodi:docname="scorpio_blue.svg"
   inkscape:version="1.0.1 (0767f8302a, 2020-10-17)">
  <defs
     id="defs2" />
  <sodipodi:namedview
     id="base"
     pagecolor="#ffffff"
     bordercolor="#666666"
     borderopacity="1.0"
     inkscape:pageopacity="0.0"
     inkscape:pageshadow="2"
     inkscape:zoom="1"
     inkscape:cx="348.51028"
     inkscape:cy="456.09864"
     inkscape:document-units="mm"
     inkscape:current-layer="layer4"
     inkscape:document-rotation="0"
     showgrid="true"
     units="px"
     inkscape:window-width="1848"
     inkscape:window-height="1016"
     inkscape:window-x="72"
     inkscape:window-y="27"
     inkscape:window-maximized="1">
    <inkscape:grid
       type="xygrid"
       id="grid878" />
  </sodipodi:namedview>
  <metadata
     id="metadata5">
    <rdf:RDF>
      <cc:Work
         rdf:about="">
        <dc:format>image/svg+xml</dc:format>
        <dc:type
           rdf:resource="http://purl.org/dc/dcmitype/StillImage" />
        <dc:title />
      </cc:Work>
    </rdf:RDF>
  </metadata>
  <g
     inkscape:groupmode="layer"
     id="layer4"
     inkscape:label="draw">
    <path
       style="fill:none;stroke:#2f343e;stroke-width:2;stroke-linecap:round;stroke-linejoin:round;stroke-opacity:1;stroke-miterlimit:4;stroke-dasharray:none"
       d="M 70.114582,33.072916 47.624999,39.6875 62.177083,46.302083 Z"
       id="path1391" />
    <path
       style="fill:none;stroke:#2f343e;stroke-width:2;stroke-linecap:round;stroke-linejoin:round;stroke-opacity:1;stroke-miterlimit:4;stroke-dasharray:none"
       d="m 47.624999,39.6875 -9.260416,19.843749 23.8125,-13.229166 5.291667,6.614584 10.583333,-6.614584 -6.614583,-6.614583 -3.96875,13.229167 2.645833,13.229166 7.9375,-19.84375"
       id="path1393" />
    <path
       style="fill:none;stroke:#2f343e;stroke-width:2;stroke-linecap:round;stroke-linejoin:round;stroke-opacity:1;stroke-miterlimit:4;stroke-dasharray:none"
       d="m 67.468749,52.916666 -11.90625,19.84375 14.552083,-6.614584"
       id="path1395" />
    <path
       style="fill:none;stroke:#2f343e;stroke-width:2;stroke-linecap:round;stroke-linejoin:round;stroke-opacity:1;stroke-miterlimit:4;stroke-dasharray:none"
       d="m 71.437499,87.312499 -33.072916,-27.78125 7.9375,27.78125 9.260416,-14.552083"
       id="path1397" />
    <path
       style="fill:none;stroke:#2f343e;stroke-width:2;stroke-linecap:round;stroke-linejoin:round;stroke-opacity:1;stroke-miterlimit:4;stroke-dasharray:none"
       d="M 46.302083,87.312499 H 71.437499 L 85.989582,76.729166 62.177083,79.374999"
       id="path1399" />
    <path
       style="fill:none;stroke:#2f343e;stroke-width:2;stroke-linecap:round;stroke-linejoin:round;stroke-miterlimit:4;stroke-dasharray:none;stroke-opacity:1"
       d="m 85.989582,76.729166 9.260417,-3.96875 7.937501,6.614583 7.9375,-6.614583 9.26042,3.96875 14.55208,10.583333 31.75,-27.78125 L 142.875,46.302083 158.75,39.6875 134.9375,33.072916 142.875,46.302083 138.90625,51.593749 127,46.302083 l 7.9375,-6.614583 3.96875,11.906249 -3.96875,14.552083 15.875,6.614584 L 158.75,87.3125 166.6875,59.531249 158.75,39.6875"
       id="path1401"
       sodipodi:nodetypes="cccccccccccccccccccc" />
    <path
       style="fill:none;stroke:#2f343e;stroke-width:2;stroke-linecap:round;stroke-linejoin:round;stroke-opacity:1;stroke-miterlimit:4;stroke-dasharray:none"
       d="m 142.875,46.302083 7.9375,26.458333"
       id="path1403" />
    <path
       style="fill:none;stroke:#2f343e;stroke-width:2;stroke-linecap:round;stroke-linejoin:round;stroke-opacity:1;stroke-miterlimit:4;stroke-dasharray:none"
       d="M 134.9375,66.145832 127,46.302083"
       id="path1405" />
    <path
       style="fill:none;stroke:#2f343e;stroke-width:2;stroke-linecap:round;stroke-linejoin:round;stroke-opacity:1;stroke-miterlimit:4;stroke-dasharray:none"
       d="M 120.38542,76.729166 142.875,79.374999"
       id="path1407" />
    <path
       style="fill:none;stroke:#2f343e;stroke-width:2;stroke-linecap:round;stroke-linejoin:round;stroke-opacity:1;stroke-miterlimit:4;stroke-dasharray:none"
       d="m 95.249999,72.760416 7.937501,72.760414 7.9375,-72.760414 v 68.791664 l -7.9375,3.96875 -7.937501,-3.96875 L 79.374999,127 82.020832,107.15625 79.374999,93.927082 85.989582,76.729166"
       id="path1409" />
    <path
       style="fill:none;stroke:#2f343e;stroke-width:2;stroke-linecap:round;stroke-linejoin:round;stroke-opacity:1;stroke-miterlimit:4;stroke-dasharray:none"
       d="M 120.38542,76.729166 127,92.604166 123.03125,107.15625 127,128.32292 l -15.875,13.22916 3.96875,6.61458 -11.90625,6.61459 -11.906251,-6.61459 3.96875,-6.61458"
       id="path1411" />
    <path
       style="fill:none;stroke:#2f343e;stroke-width:2;stroke-linecap:round;stroke-linejoin:round;stroke-opacity:1;stroke-miterlimit:4;stroke-dasharray:none"
       d="M 91.281249,148.16666 103.1875,182.5625 115.09375,148.16666"
       id="path1413" />
    <path
       style="fill:none;stroke:#2f343e;stroke-width:2;stroke-linecap:round;stroke-linejoin:round;stroke-opacity:1;stroke-miterlimit:4;stroke-dasharray:none"
       d="m 103.1875,182.5625 15.875,13.22916 -9.26042,-31.75"
       id="path1415" />
    <path
       style="fill:none;stroke:#2f343e;stroke-width:2;stroke-linecap:round;stroke-linejoin:round;stroke-miterlimit:4;stroke-dasharray:none;stroke-opacity:1"
       d="m 119.0625,195.79166 11.90625,-11.90625 -17.19792,-7.93749"
       id="path1417"
       sodipodi:nodetypes="ccc" />
    <path
       style="fill:none;stroke:#2f343e;stroke-width:2;stroke-linecap:round;stroke-linejoin:round;stroke-opacity:1;stroke-miterlimit:4;stroke-dasharray:none"
       d="m 130.96875,183.88541 3.96875,-15.875 -21.16667,7.9375"
       id="path1419" />
    <path
       style="fill:none;stroke:#2f343e;stroke-width:2;stroke-linecap:round;stroke-linejoin:round;stroke-opacity:1;stroke-miterlimit:4;stroke-dasharray:none"
       d="m 124.35417,171.97916 10.58333,-17.19791 v 13.22916 l 26.45833,-23.8125 5.29167,-13.22916 v 30.42708 L 158.75,174.625 h -11.90625 l -11.90625,-6.61459 v -13.22916 l 11.90625,-10.58334 h 14.55208"
       id="path1421" />
    <path
       style="fill:none;stroke:#2f343e;stroke-width:2;stroke-linecap:round;stroke-linejoin:round;stroke-opacity:1;stroke-miterlimit:4;stroke-dasharray:none"
       d="m 127,128.32292 h 25.13541 l -26.45833,-7.9375"
       id="path1423"
       sodipodi:nodetypes="ccc" />
    <path
       style="fill:none;stroke:#2f343e;stroke-width:2;stroke-linecap:round;stroke-linejoin:round;stroke-opacity:1;stroke-miterlimit:4;stroke-dasharray:none"
       d="m 124.35417,112.44792 13.22916,5.29166 14.55209,1.32292 9.26041,-5.29167 -18.52083,0 -19.84375,-6.61458"
       id="path1425"
       sodipodi:nodetypes="cccccc" />
    <path
       style="fill:none;stroke:#2f343e;stroke-width:2;stroke-linecap:round;stroke-linejoin:round;stroke-opacity:1;stroke-miterlimit:4;stroke-dasharray:none"
       d="m 124.35417,103.1875 18.52083,3.96875 15.875,-6.61458 -15.875,2.64583 -17.19792,-3.968751"
       id="path1427"
       sodipodi:nodetypes="ccccc" />
    <path
       style="fill:none;stroke:#2f343e;stroke-width:2;stroke-linecap:round;stroke-linejoin:round;stroke-opacity:1;stroke-miterlimit:4;stroke-dasharray:none"
       d="m 127,92.604166 h 11.90625 l 3.96875,5.291666 h -17.19792"
       id="path1429" />
    <path
       style="fill:none;stroke:#2f343e;stroke-width:2;stroke-linecap:round;stroke-linejoin:round;stroke-opacity:1;stroke-miterlimit:4;stroke-dasharray:none"
       d="m 142.875,97.895832 3.96875,-9.260415 -7.9375,3.968749"
       id="path1431"
       sodipodi:nodetypes="ccc" />
    <path
       style="fill:none;stroke:#2f343e;stroke-width:2;stroke-linecap:round;stroke-linejoin:round;stroke-opacity:1;stroke-miterlimit:4;stroke-dasharray:none"
       d="M 134.9375,87.312499 H 158.75"
       id="path1433" />
    <path
       style="fill:none;stroke:#2f343e;stroke-width:2;stroke-linecap:round;stroke-linejoin:round;stroke-miterlimit:4;stroke-dasharray:none;stroke-opacity:1"
       d="m 79.374999,127 h -23.8125 L 79.375,120.38542"
       id="path1435"
       sodipodi:nodetypes="ccc" />
    <path
       style="fill:none;stroke:#2f343e;stroke-width:2;stroke-linecap:round;stroke-linejoin:round;stroke-opacity:1;stroke-miterlimit:4;stroke-dasharray:none"
       d="m 80.697916,113.77083 -13.229167,3.96875 -13.229166,1.32292 -7.9375,-5.29167 h 17.197916 l 18.520833,-6.61458"
       id="path1437" />
    <path
       style="fill:none;stroke:#2f343e;stroke-width:2;stroke-linecap:round;stroke-linejoin:round;stroke-opacity:1;stroke-miterlimit:4;stroke-dasharray:none"
       d="m 80.697916,103.1875 -17.197917,3.96875 -15.875,-6.61458 15.875,2.64583 15.875,-3.968751"
       id="path1439" />
    <path
       style="fill:none;stroke:#2f343e;stroke-width:2;stroke-linecap:round;stroke-linejoin:round;stroke-opacity:1;stroke-miterlimit:4;stroke-dasharray:none"
       d="m 79.375,97.895833 -15.875001,-1.322918 3.96875,-3.968749 h 11.90625"
       id="path1441"
       sodipodi:nodetypes="cccc" />
    <path
       style="fill:none;stroke:#2f343e;stroke-width:2;stroke-linecap:round;stroke-linejoin:round;stroke-opacity:1;stroke-miterlimit:4;stroke-dasharray:none"
       d="m 67.468749,92.604166 -7.9375,-3.96875 3.96875,7.937499"
       id="path1443" />
    <path
       style="fill:none;stroke:#2f343e;stroke-width:2;stroke-linecap:round;stroke-linejoin:round;stroke-opacity:1;stroke-miterlimit:4;stroke-dasharray:none"
       d="M 95.249999,141.55208 V 72.760416"
       id="path1445" />
  </g>
</svg>
