<?xml version="1.0" encoding="UTF-8" standalone="no"?>
<svg
   xmlns:dc="http://purl.org/dc/elements/1.1/"
   xmlns:cc="http://creativecommons.org/ns#"
   xmlns:rdf="http://www.w3.org/1999/02/22-rdf-syntax-ns#"
   xmlns:svg="http://www.w3.org/2000/svg"
   xmlns="http://www.w3.org/2000/svg"
   xmlns:sodipodi="http://sodipodi.sourceforge.net/DTD/sodipodi-0.dtd"
   xmlns:inkscape="http://www.inkscape.org/namespaces/inkscape"
   width="800"
   height="800"
   viewBox="0 0 211.66666 211.66666"
   version="1.1"
   id="svg992"
   inkscape:version="1.0.1 (0767f8302a, 2020-10-17)"
   sodipodi:docname="taurus_blue.svg">
  <defs
     id="defs986" />
  <sodipodi:namedview
     id="base"
     pagecolor="#ffffff"
     bordercolor="#666666"
     borderopacity="1.0"
     inkscape:pageopacity="0.0"
     inkscape:pageshadow="2"
     inkscape:zoom="1.4"
     inkscape:cx="299.63577"
     inkscape:cy="409.26731"
     inkscape:document-units="mm"
     inkscape:current-layer="layer5"
     inkscape:document-rotation="0"
     showgrid="true"
     units="px"
     inkscape:window-width="1848"
     inkscape:window-height="1016"
     inkscape:window-x="72"
     inkscape:window-y="27"
     inkscape:window-maximized="1">
    <inkscape:grid
       type="xygrid"
       id="grid994" />
  </sodipodi:namedview>
  <metadata
     id="metadata989">
    <rdf:RDF>
      <cc:Work
         rdf:about="">
        <dc:format>image/svg+xml</dc:format>
        <dc:type
           rdf:resource="http://purl.org/dc/dcmitype/StillImage" />
        <dc:title></dc:title>
      </cc:Work>
    </rdf:RDF>
  </metadata>
  <g
     inkscape:groupmode="layer"
     id="layer5"
     inkscape:label="m"
     style="display:inline">
    <path
       style="fill:none;stroke:#2f343e;stroke-width:2;stroke-linecap:round;stroke-linejoin:round;stroke-miterlimit:4;stroke-dasharray:none;stroke-opacity:1"
       d="M 51.59375,68.791667 14.552083,47.624999 22.489583,70.114583 75.406249,68.791666 60.631337,91.54503 71.4375,95.25 l 35.71875,11.90625 44.97916,-15.875001 -14.55208,-22.489583 -30.42708,7.9375 -31.750001,-7.9375 31.750001,7.9375 30.42708,-7.9375 54.23958,1.322916 7.9375,-22.489583 -30.42708,-7.937499 -7.9375,7.937499 H 174.625 l -5.29167,-6.614583 14.55208,14.552083 15.875,-7.9375 -39.68749,21.166668 31.74999,1.322915 -43.65625,14.552084 3.96875,6.614583 -13.22916,5.291668 21.16666,-1.322918 -3.96875,10.583331 h -9.26041 l -9.26042,-9.260415 -7.9375,9.260415 v -6.614581 0 34.395831 l 23.8125,-19.84375 -15.875,-17.197915 15.875,17.197915 -7.9375,6.61459 v 14.55208 l -10.58333,9.26041 2.64583,5.29167 -9.26041,13.22917 -21.16667,-5.29167 -21.166668,6.61458 -10.583333,-14.55208 7.9375,-15.875 L 107.15625,127 l 10.58333,2.64583"
       id="path1724"
       sodipodi:nodetypes="cccccccccccccccccccccccccccccccccccccccccccccccc" />
    <path
       style="fill:none;stroke:#2f343e;stroke-width:2;stroke-linecap:round;stroke-linejoin:round;stroke-miterlimit:4;stroke-dasharray:none;stroke-opacity:1"
       d="m 96.572915,129.64583 10.583335,-15.875 10.58333,15.875 11.90625,3.96875 5.29167,10.58333"
       id="path1726"
       sodipodi:nodetypes="ccccc" />
    <path
       style="fill:none;stroke:#2f343e;stroke-width:2;stroke-linecap:round;stroke-linejoin:round;stroke-opacity:1;stroke-miterlimit:4;stroke-dasharray:none"
       d="m 87.312499,149.48958 3.96875,6.61458 -3.96875,-1.32291 z"
       id="path1728" />
    <path
       style="fill:none;stroke:#2f343e;stroke-width:2;stroke-linecap:round;stroke-linejoin:round;stroke-opacity:1;stroke-miterlimit:4;stroke-dasharray:none"
       d="m 121.70833,156.10416 3.96875,-6.61458 v 5.29167 z"
       id="path1730" />
    <path
       style="fill:none;stroke:#2f343e;stroke-width:2;stroke-linecap:round;stroke-linejoin:round;stroke-opacity:1;stroke-miterlimit:4;stroke-dasharray:none"
       d="m 100.54167,160.07291 6.61458,3.96875 6.61458,-3.96875"
       id="path1732" />
    <path
       style="fill:none;stroke:#2f343e;stroke-width:2;stroke-linecap:round;stroke-linejoin:round;stroke-miterlimit:4;stroke-dasharray:none;stroke-opacity:1"
       d="m 78.052082,144.19791 -9.260416,-9.26041 v -13.22917 l 14.552083,11.90625 V 99.218749 l -7.937499,-2.645832 -22.489584,-2.645835 3.96875,11.906248 9.260417,1.32292 9.260417,-10.583333 -14.552084,17.197913 22.489583,19.84375 V 105.83333 L 75.40625,96.572917"
       id="path1734"
       sodipodi:nodetypes="cccccccccccccc" />
    <path
       style="fill:none;stroke:#2f343e;stroke-width:2;stroke-linecap:round;stroke-linejoin:round;stroke-miterlimit:4;stroke-dasharray:none;stroke-opacity:1"
       d="m 22.489583,70.114582 42.333334,14.552085 5.291666,-7.9375 13.229166,7.937499 14.552083,-9.260417 9.260418,30.427081 7.9375,-30.427081 14.55208,9.260417 13.22917,-6.614583"
       id="path1736"
       sodipodi:nodetypes="ccccccccc" />
    <path
       style="fill:none;stroke:#2f343e;stroke-width:2;stroke-linecap:round;stroke-linejoin:round;stroke-miterlimit:4;stroke-dasharray:none;stroke-opacity:1"
       d="m 88.635416,164.04166 2.645833,6.61459 15.875001,-2.64583 14.55208,2.64583 3.96875,-7.9375"
       id="path1738"
       sodipodi:nodetypes="ccccc" />
    <path
       style="fill:none;stroke:#2f343e;stroke-width:2;stroke-linecap:round;stroke-linejoin:round;stroke-miterlimit:4;stroke-dasharray:none;stroke-opacity:1"
       d="m 14.552083,47.625 30.427083,-7.9375 7.9375,7.937499 h -15.875 l 7.9375,-7.937499 -15.875,15.874999"
       id="path1742"
       sodipodi:nodetypes="cccccc" />
  </g>
</svg>
